<svg height="496pt" viewBox="0 0 496 496" width="496pt" xmlns="http://www.w3.org/2000/svg" xmlns:xlink="http://www.w3.org/1999/xlink"><linearGradient id="linear0" gradientUnits="userSpaceOnUse" x1="248" x2="248" y1="496" y2="0"><stop offset="0" stop-color="#9f2fff"/><stop offset="1" stop-color="#0bb1d3"/></linearGradient><path d="m273.3125 365.800781 15.390625 4.398438-4.566406 16-15.394531-4.398438zm-11.992188 41.976563c-2.886718 10.125-8.632812 19.191406-16.59375 26.222656l10.59375 11.992188c10.253907-9.054688 17.648438-20.753907 21.390626-33.824219l2.847656-9.976563-15.390625-4.398437zm-231.375-159.503906 4.109376 15.460937 15.464843-4.101563-4.113281-15.464843zm30.925782-8.210938 4.113281 15.464844 15.464844-4.101563-4.113281-15.464843zm30.9375-8.214844 4.113281 15.472656 15.460937-4.105468-4.109374-15.472656zm-89.464844 250.496094 11.3125 11.3125 16-16-11.3125-11.3125zm24-24 11.3125 11.3125 72-72-11.3125-11.3125zm40 8 11.3125 11.3125 16-16-11.3125-11.3125zm67.3125-44.6875-11.3125-11.3125-32 32 11.3125 11.3125zm-115.3125-3.3125 11.3125 11.3125 16-16-11.3125-11.3125zm24-24 11.3125 11.3125 32-32-11.3125-11.3125zm432.144531-133.96875 21.511719 5.378906v60.492188l-21.511719 5.378906c-2.167969 7-4.960937 13.742188-8.335937 20.152344l11.414062 19-42.78125 42.773437-19.007812-11.398437c-6.417969 3.375-13.167969 6.167968-20.152344 8.335937l-5.386719 21.511719h-60.476562l-5.394531-21.527344c-4.167969-1.320312-8.34375-2.992187-12.503907-4.855468l-4.382812 15.351562c-12.632813 44.175781-53.535157 75.03125-99.480469 75.03125h-9.0625l13.886719-111.089844-30.03125 16.882813-8.160157-8.160157-32.207031 16.101563-56.160156-56.160156 16.101563-32.207031-7.847657-7.847657 14.105469-30-108.625 13.710938v-9.070313c0-45.945312 30.847656-86.847656 75.03125-99.472656l15.417969-4.398438c-1.882813-4.210937-3.578125-8.425781-4.914063-12.65625l-21.535156-5.386718v-60.492188l21.511719-5.378906c2.167969-7 4.960937-13.742188 8.335937-20.152344l-11.414062-19 42.78125-42.773437 19.007812 11.398437c6.417969-3.375 13.167969-6.167968 20.152344-8.335937l5.386719-21.511719h60.484375l5.386718 21.511719c6.984376 2.167969 13.734376 4.960937 20.152344 8.335937l19.007813-11.398437 32.527343 32.527343c30.441407-15.96875 62.945313-28.054687 96.855469-35.761718l64.519531-14.664063c1.609376-.367187 3.25-.550781 4.878907-.550781 12.546875 0 22.425781 9.886719 22.425781 22.03125 0 2.058594-.289062 4.097656-.847656 6.058594l-19.640625 68.765625c-8.609375 30.097656-20.886719 58.960937-36.191407 86.113281l38.246094 38.246094-11.414062 19c3.367187 6.417968 6.160156 13.160156 8.335937 20.160156zm-78.929687-226.574219c8.5625 30.671875 32.113281 55.296875 62.433594 65.269531.679687-2.214843 1.480468-4.382812 2.121093-6.613281l19.648438-68.777343c.160156-.519532.238281-1.078126.238281-1.648438 0-3.328125-2.703125-6.03125-6.03125-6.03125-.839844 0-1.304688.046875-1.753906.152344l-64.503906 14.664062c-4.070313.925782-8.117188 1.9375-12.152344 2.984375zm-289.445313 146.007813 15.285157-4.367188c-6.140626-12.203125-9.398438-25.632812-9.398438-39.441406 0-48.519531 39.480469-88 88-88 24.960938 0 48.128906 10.433594 64.800781 28.726562 9.054688-6.300781 18.390625-12.183593 27.925781-17.710937l-20.429687-20.429687-16.28125 9.765624-4.078125-2.359374c-7.792969-4.503907-16.210938-7.992188-25.027344-10.351563l-4.542968-1.214844-4.605469-18.425781h-35.523438l-4.605469 18.433594-4.542968 1.214844c-8.816406 2.359374-17.234375 5.839843-25.027344 10.351562l-4.078125 2.359375-16.28125-9.765625-25.109375 25.101562 9.773438 16.28125-2.367188 4.078126c-4.503906 7.777343-7.984375 16.191406-10.351562 25.035156l-1.214844 4.542968-18.433594 4.613282v35.507812l18.433594 4.605469 1.214844 4.542969c1.503906 5.625 3.792968 11.28125 6.464843 16.90625zm104.511719-57.746094c5.320312-5.320312 10.816406-10.429688 16.398438-15.414062-7.328126-6.800782-16.832032-10.648438-27.023438-10.648438-22.054688 0-40 17.945312-40 40 0 9.558594 3.496094 18.449219 9.625 25.664062l8.136719-2.328124c10.140625-13.039063 21.085937-25.503907 32.863281-37.273438zm41.214844-35.902344c-13.542969-14.167968-32.023438-22.160156-51.839844-22.160156-39.703125 0-72 32.304688-72 72 0 12.328125 3.296875 24.230469 9.257812 34.910156l15.789063-4.511718c-5.863281-8.972657-9.046875-19.40625-9.046875-30.398438 0-30.878906 25.128906-56 56-56 14.929688 0 28.792969 5.847656 39.207031 16.175781 4.152344-3.421875 8.351563-6.769531 12.632813-10.015625zm-135.152344 180.214844 15.03125-31.984375c8.882812-18.902344 19.242188-36.925781 30.867188-54.078125l-83.160157 23.757812c-34.386719 9.824219-59.21875 39.921876-62.9375 74.953126zm46.015625 115.328125-48.40625-48.40625-8.5625 17.128906 39.839844 39.839844zm-2.894531-25.527344 53.199218-59.855469-13.328124-13.335937-59.855469 53.199219zm25.710937 25.71875 75.703125-42.535156c30.464844-17.121094 58.433594-38.320313 83.121094-63.007813l18.425781-18.421874c40.453125-40.449219 71.375-89.746094 90.351563-143.609376-35.410156-11.617187-62.914063-40.335937-72.9375-76.128906-59.625 18.296875-113.894532 50.847656-158.238282 95.191406-31.394531 31.386719-56.867187 67.664063-75.738281 107.824219l-32.414062 68.960938 14.703125 14.703125 71.832031-63.855469 34.671875 34.664063-63.855469 71.832031zm216.550781-144.0625c-3.34375 4.144531-6.65625 8.320313-10.167968 12.328125 14.859375 10.34375 24.097656 27.320313 24.097656 45.839844 0 30.878906-25.128906 56-56 56-10.929688 0-21.320312-3.160156-30.257812-8.953125l-4.503907 15.769531c10.632813 5.910156 22.488281 9.183594 34.761719 9.183594 39.703125 0 72-32.304688 72-72 0-23.046875-11.367188-44.703125-29.929688-58.167969zm-60.175781 62.679688-7.421875 25.984375c7.183594 6.046875 16.03125 9.503906 25.527344 9.503906 22.054688 0 40-17.945312 40-40 0-14.007812-7.351562-26.839844-19.089844-34.046875-2.292968 2.414063-4.46875 4.925781-6.832031 7.277344l-18.421875 18.425781c-4.441406 4.449219-9.121094 8.632812-13.761719 12.855469zm-49.804687 116.054687 27.847656-97.445312c-16.074219 12.621094-33 24.144531-50.859375 34.183594l-38.902344 21.863281-13.039062 104.351562c35.023437-3.710937 65.121093-28.550781 74.953125-62.953125zm187.910156-138.320312-18.433594-4.605469-1.214844-4.542969c-2.367187-8.839844-5.847656-17.265625-10.351562-25.035156l-2.367188-4.078125 9.773438-16.28125-25.109375-25.101563-3.695313 2.214844c-5.28125 8.328125-10.839843 16.464844-16.722656 24.382813 22.417969 16.472656 36.121094 42.800781 36.121094 70.800781 0 48.519531-39.480469 88-88 88-13.753906 0-27.136719-3.230469-39.296875-9.328125l-4.367187 15.289063c5.59375 2.640624 11.199218 4.902343 16.753906 6.390624l4.542968 1.214844 4.605469 18.433594h35.515625l4.605469-18.433594 4.542969-1.214844c8.816406-2.359374 17.234375-5.839843 25.027344-10.351562l4.078124-2.359375 16.28125 9.765625 25.109376-25.101562-9.773438-16.28125 2.367188-4.078126c4.496093-7.777343 7.984374-16.191406 10.351562-25.035156l1.214844-4.542968 18.441406-4.613282zm-251.921875 43.027344 7.84375 13.941406 16-8.992188-7.84375-13.941406zm91.371094-43.335938-10.722657-11.875c-15.167968 13.679688-31.628906 26.121094-48.964843 36.96875l8.484375 13.5625c18.121094-11.335938 35.347656-24.347656 51.203125-38.65625zm-123.578125-89.496094 12.9375 9.40625c3.070312-4.214844 6.230468-8.367187 9.480468-12.449218l-12.511718-9.957032c-3.402344 4.253906-6.707032 8.589844-9.90625 13zm-33.527344 56.085938 14.410156 6.945312c2.269532-4.695312 4.628906-9.335937 7.109375-13.914062l-14.078125-7.605469c-2.59375 4.789063-5.074218 9.648437-7.441406 14.574219zm15.503906-28.792969 13.738282 8.203125c2.671874-4.480469 5.445312-8.890625 8.308593-13.234375l-13.34375-8.824219c-3.007812 4.554688-5.902343 9.167969-8.703125 13.855469zm134.152344 40.265625c-44.113281 0-80-35.886719-80-80s35.886719-80 80-80 80 35.886719 80 80-35.886719 80-80 80zm0-16c35.289062 0 64-28.710938 64-64s-28.710938-64-64-64-64 28.710938-64 64 28.710938 64 64 64zm0-16c-26.472656 0-48-21.527344-48-48s21.527344-48 48-48 48 21.527344 48 48-21.527344 48-48 48zm0-16c17.648438 0 32-14.351562 32-32s-14.351562-32-32-32-32 14.351562-32 32 14.351562 32 32 32zm0 0" fill="url(#linear0)"/></svg>